<?xml version="1.0" encoding="UTF-8"?>
<svg width="192px" height="192px" viewBox="0 0 192 192" version="1.1" xmlns="http://www.w3.org/2000/svg" xmlns:xlink="http://www.w3.org/1999/xlink">
    <!-- Generator: Sketch 52.1 (67048) - http://www.bohemiancoding.com/sketch -->
    <title>photography</title>
    <desc>Created with Sketch.</desc>
    <g id="Page-1" stroke="none" stroke-width="1" fill="none" fill-rule="evenodd">
        <g id="photography" transform="translate(-1.000000, 0.000000)" fill="#FFDF06">
            <circle id="Oval" cx="96.629" cy="95.629" r="15.938"></circle>
            <path d="M176.321,0 L152.414,0 C150.214,0 148.429,1.782 148.429,3.985 C148.429,6.187 150.213,7.97 152.414,7.97 L176.321,7.97 C180.724,7.97 184.29,11.534 184.29,15.939 L184.29,39.846 C184.29,42.048 186.074,43.831 188.275,43.831 C190.475,43.831 192.26,42.049 192.26,39.846 L192.26,15.938 C192.259,7.136 185.122,0 176.321,0 Z" id="Path"></path>
            <path d="M40.846,0 L16.938,0 C8.136,0 1,7.136 1,15.938 L1,39.845 C1,42.047 2.784,43.83 4.985,43.83 C7.185,43.83 8.97,42.048 8.97,39.845 L8.97,15.938 C8.97,11.533 12.536,7.969 16.939,7.969 L40.846,7.969 C43.046,7.969 44.831,6.187 44.831,3.984 C44.83,1.782 43.046,0 40.846,0 Z" id="Path"></path>
            <path d="M40.846,183.29 L16.938,183.29 C12.535,183.29 8.969,179.726 8.969,175.321 L8.969,151.414 C8.969,149.212 7.185,147.429 4.984,147.429 C2.784,147.429 0.999,149.211 0.999,151.414 L0.999,175.321 C0.999,184.123 8.135,191.259 16.937,191.259 L40.844,191.259 C43.044,191.259 44.829,189.477 44.829,187.274 C44.83,185.072 43.046,183.29 40.846,183.29 Z" id="Path"></path>
            <path d="M188.274,147.429 C186.074,147.429 184.289,149.211 184.289,151.414 L184.289,175.321 C184.289,179.726 180.723,183.29 176.32,183.29 L152.413,183.29 C150.213,183.29 148.428,185.072 148.428,187.275 C148.428,189.477 150.212,191.26 152.413,191.26 L176.32,191.26 C185.122,191.26 192.258,184.124 192.258,175.322 L192.258,151.415 C192.259,149.211 190.474,147.429 188.274,147.429 Z" id="Path"></path>
            <path d="M96.629,55.784 C74.623,55.784 56.783,73.621 56.783,95.63 C56.783,117.638 74.622,135.476 96.629,135.476 C118.635,135.476 136.475,117.639 136.475,95.63 C136.475,73.621 118.636,55.784 96.629,55.784 Z M96.629,127.506 C79.025,127.506 64.753,113.233 64.753,95.63 C64.753,78.026 79.026,63.753 96.629,63.753 C114.233,63.753 128.506,78.026 128.506,95.63 C128.506,113.233 114.233,127.506 96.629,127.506 Z" id="Shape" fill-rule="nonzero"></path>
        </g>
    </g>
</svg>