<?xml version="1.0" encoding="UTF-8"?>
<svg width="514px" height="514px" viewBox="0 0 514 514" version="1.1" xmlns="http://www.w3.org/2000/svg" xmlns:xlink="http://www.w3.org/1999/xlink">
    <!-- Generator: Sketch 52.1 (67048) - http://www.bohemiancoding.com/sketch -->
    <title>Path</title>
    <desc>Created with Sketch.</desc>
    <g id="Page-1" stroke="none" stroke-width="1" fill="none" fill-rule="evenodd">
        <g id="arrows" fill="#FFDF06">
            <path d="M256.66,0 C168.968,0 89.831,44.916 42.777,115.497 L42.777,21.388 L0,21.388 L0,192.495 L171.107,192.495 L171.107,149.718 L72.72,149.718 C111.219,83.414 179.662,42.777 256.66,42.777 C374.296,42.777 470.543,139.024 470.543,256.66 C470.543,374.296 374.296,470.543 256.66,470.543 C153.996,470.543 64.165,397.823 47.055,295.158 C44.916,284.464 34.222,275.909 21.389,278.048 C10.695,280.187 2.14,290.881 4.279,303.714 C25.666,425.628 132.608,513.32 256.66,513.32 C397.823,513.32 513.32,397.823 513.32,256.66 C513.32,115.497 397.823,0 256.66,0 Z" id="Path"></path>
        </g>
    </g>
</svg>