<?xml version="1.0" encoding="UTF-8"?>
<svg width="384px" height="512px" viewBox="0 0 384 512" version="1.1" xmlns="http://www.w3.org/2000/svg" xmlns:xlink="http://www.w3.org/1999/xlink">
    <!-- Generator: Sketch 52.1 (67048) - http://www.bohemiancoding.com/sketch -->
    <title>002-trash</title>
    <desc>Created with Sketch.</desc>
    <g id="Page-1" stroke="none" stroke-width="1" fill="none" fill-rule="evenodd">
        <g id="002-trash" fill="#FFDF06">
            <path d="M330.667,42.667 L273.259,42.667 L266.646,29.483 C257.557,11.285 239.275,0 218.944,0 L165.035,0 C144.704,0 126.443,11.285 117.334,29.483 L110.742,42.667 L53.334,42.667 C23.915,42.667 0,66.603 0,96 L0,117.333 C0,123.221 4.779,128 10.667,128 L373.334,128 C379.222,128 384.001,123.221 384.001,117.333 L384.001,96 C384,66.603 360.085,42.667 330.667,42.667 Z M362.667,106.667 L21.333,106.667 L21.333,96 C21.333,78.357 35.69,64 53.333,64 L117.333,64 C121.365,64 125.056,61.717 126.869,58.112 L136.426,39.019 C141.866,28.118 152.831,21.334 165.055,21.334 L218.964,21.334 C231.167,21.334 242.132,28.118 247.593,39.019 L257.129,58.112 C258.942,61.717 262.633,64 266.665,64 L330.665,64 C348.308,64 362.665,78.357 362.665,96 L362.667,106.667 Z" id="Shape" fill-rule="nonzero"></path>
            <path d="M352,106.667 L32,106.667 C26.112,106.667 21.333,111.446 21.333,117.334 L21.333,437.334 C21.333,478.507 54.827,512 96,512 L288,512 C329.173,512 362.667,478.507 362.667,437.333 L362.667,117.333 C362.667,111.445 357.888,106.667 352,106.667 Z M341.333,437.333 C341.333,466.73 317.418,490.666 288,490.666 L96,490.666 C66.581,490.666 42.667,466.73 42.667,437.333 L42.667,128 L341.334,128 L341.334,437.333 L341.333,437.333 Z" id="Shape" fill-rule="nonzero"></path>
            <path d="M96,170.667 C90.112,170.667 85.333,175.446 85.333,181.334 L85.333,437.334 C85.333,443.222 90.112,448.001 96,448.001 C101.888,448.001 106.667,443.222 106.667,437.334 L106.667,181.334 C106.667,175.445 101.888,170.667 96,170.667 Z" id="Path"></path>
            <path d="M160,170.667 C154.112,170.667 149.333,175.446 149.333,181.334 L149.333,437.334 C149.333,443.222 154.112,448.001 160,448.001 C165.888,448.001 170.667,443.222 170.667,437.334 L170.667,181.334 C170.667,175.445 165.888,170.667 160,170.667 Z" id="Path"></path>
            <path d="M224,170.667 C218.112,170.667 213.333,175.446 213.333,181.334 L213.333,437.334 C213.333,443.222 218.112,448.001 224,448.001 C229.888,448.001 234.667,443.222 234.667,437.334 L234.667,181.334 C234.667,175.445 229.888,170.667 224,170.667 Z" id="Path"></path>
            <path d="M288,170.667 C282.112,170.667 277.333,175.446 277.333,181.334 L277.333,437.334 C277.333,443.222 282.112,448.001 288,448.001 C293.888,448.001 298.667,443.222 298.667,437.334 L298.667,181.334 C298.667,175.445 293.888,170.667 288,170.667 Z" id="Path"></path>
        </g>
    </g>
</svg>